Results
version=1
nRows=24
nColumns=24
inDegrees=yes
endheader
time	pelvis_tilt	pelvis_list	pelvis_rotation	pelvis_tx	pelvis_ty	pelvis_tz	hip_flexion_r	hip_adduction_r	hip_rotation_r	knee_angle_r	ankle_angle_r	subtalar_angle_r	mtp_angle_r	hip_flexion_l	hip_adduction_l	hip_rotation_l	knee_angle_l	ankle_angle_l	subtalar_angle_l	mtp_angle_l	lumbar_extension	lumbar_bending	lumbar_rotation
      1.00816667	     -7.61632950	      1.50848976	     -2.70308150	     -0.12025587	      1.03525584	      0.29838688	     -1.93249097	     -0.32817724	      0.28974294	    -16.64874159	     19.44616504	      0.25156557	      7.28388256	     29.25536296	     -0.80064556	      1.59631765	     -3.45890188	      2.48645396	      0.20805926	      7.18010108	     -5.28746091	      1.58326120	      3.35775950
      1.01233333	     -7.59252422	      1.59086960	     -2.77214174	     -0.11413167	      1.03447355	      0.29794710	     -2.05912537	     -0.49364208	      0.23417433	    -17.19740324	     19.54964944	      0.49580582	      7.32545422	     29.32671603	     -0.65640981	      1.59818714	     -4.00999223	      2.36608986	      0.15452648	      7.19505511	     -5.27777108	      1.46461082	      3.37704799
      1.01650000	     -7.55220358	      1.67944732	     -2.83567361	     -0.10801362	      1.03376668	      0.29749178	     -2.18130116	     -0.67007840	      0.16299691	    -17.78935813	     19.62159324	      0.76799684	      7.39031303	     29.39277919	     -0.50170482	      1.58794529	     -4.64473669	      2.23097204	      0.11549248	      7.22129589	     -5.28978770	      1.33941731	      3.39730015
      1.02066667	     -7.52278966	      1.76426075	     -2.89780075	     -0.10188786	      1.03310511	      0.29703076	     -2.26888502	     -0.84381681	      0.09277674	    -18.42507751	     19.64863595	      1.03603055	      7.49168164	     29.47994497	     -0.35096982	      1.56660990	     -5.35393124	      2.08169496	      0.09363900	      7.26248365	     -5.28136983	      1.21937599	      3.42001064
      1.02483333	     -7.49431007	      1.86403844	     -2.96737239	     -0.09576038	      1.03248319	      0.29658593	     -2.32931237	     -1.03390204	      0.05225687	    -19.11290561	     19.63859534	      1.25394444	      7.59335925	     29.57077734	     -0.19003811	      1.53739574	     -6.11662232	      1.94600657	      0.06407572	      7.30147805	     -5.27687931	      1.06334351	      3.42195997
      1.02900000	     -7.47286512	      1.95004069	     -3.03059755	     -0.08963489	      1.03191016	      0.29611403	     -2.35600750	     -1.21310824	     -0.01226942	    -19.84948980	     19.58147380	      1.51459554	      7.72529559	     29.68055256	     -0.04168628	      1.49643896	     -6.94228092	      1.80665394	      0.06442187	      7.34740238	     -5.25469451	      0.92953235	      3.43382983
      1.03316667	     -7.43169338	      2.04162571	     -3.08969084	     -0.08351672	      1.03142221	      0.29563255	     -2.37983754	     -1.40189945	     -0.07820054	    -20.63050122	     19.47849545	      1.76941230	      7.89035600	     29.77568102	      0.11280041	      1.44240796	     -7.81441039	      1.67016884	      0.08406291	      7.39883252	     -5.27356537	      0.79080375	      3.44072273
      1.03733333	     -7.39419570	      2.12597592	     -3.14645159	     -0.07739895	      1.03098380	      0.29513812	     -2.37010596	     -1.58540049	     -0.14876256	    -21.46810301	     19.32605504	      2.02438177	      8.10526100	     29.87857064	      0.25805545	      1.37384768	     -8.72255083	      1.54051471	      0.12134839	      7.45752920	     -5.28062614	      0.65663759	      3.44638934
      1.04150000	     -7.34202805	      2.20778944	     -3.19975550	     -0.07129991	      1.03062637	      0.29463573	     -2.34696032	     -1.77034453	     -0.22420396	    -22.35683423	     19.12124225	      2.27011273	      8.38333206	     29.96637128	      0.39959457	      1.29867921	     -9.65169922	      1.42160821	      0.18089512	      7.52340069	     -5.31282514	      0.52550020	      3.45185262
      1.04566667	     -7.30126637	      2.26294205	     -3.26454027	     -0.06519966	      1.03032470	      0.29416614	     -2.29140928	     -1.91795341	     -0.23531647	    -23.26919618	     18.75047509	      2.31361997	     11.62798574	     30.07651284	      0.49918458	      1.15116560	    -10.62870819	      1.34500227	      0.32316735	      8.16745824	     -5.32580139	      0.43011459	      3.46381628
      1.04983333	     -7.24355236	      2.34990374	     -3.30472739	     -0.05907041	      1.03010709	      0.29361986	     -2.21775944	     -2.11947346	     -0.35108464	    -24.26147224	     18.41923791	      2.59752495	     11.68777483	     30.12695406	      0.65298630	      1.14343275	    -11.53079031	      1.22086737	      0.26382511	      8.16933142	     -5.35621799	      0.27455379	      3.44656038
      1.05400000	     -7.17039868	      2.40931724	     -3.35755352	     -0.05298421	      1.02995970	      0.29309465	     -2.12226152	     -2.29265607	     -0.44474347	    -25.31770335	     18.04279720	      2.82444826	     12.24316780	     30.18126447	      0.76070434	      1.00659915	    -12.48953340	      1.20014033	      0.43892104	      8.18038795	     -5.42471796	      0.16460800	      3.47133239
      1.05816667	     -7.14519294	      2.47951187	     -3.40481342	     -0.04687074	      1.02981817	      0.29256095	     -1.94761029	     -2.47446477	     -0.51960509	    -26.42067863	     17.57559678	      3.01734267	     12.35875195	     30.24560862	      0.88706652	      0.99178106	    -13.37406513	      1.10618899	      0.36773635	      8.17965345	     -5.41125480	      0.03365060	      3.43888363
      1.06233333	     -7.10410884	      2.52094939	     -3.44598256	     -0.04078728	      1.02974998	      0.29200167	     -1.75641957	     -2.63134663	     -0.61172703	    -27.57483128	     17.01868127	      3.14254606	     14.95893212	     30.29973089	      0.98014269	      0.90950307	    -14.28037710	      1.09625762	      0.46578833	      8.12436706	     -5.43384170	     -0.03977057	      3.44518406
      1.06650000	     -7.02769464	      2.60487912	     -3.49367610	     -0.03467417	      1.02981401	      0.29146065	     -1.56403003	     -2.84841909	     -0.73836771	    -28.79963277	     16.46519937	      3.37541701	     15.02461466	     30.27021388	      1.11748358	      0.85087306	    -15.09983376	      1.07395670	      0.46447345	      8.12115957	     -5.48759068	     -0.19103332	      3.42365671
      1.07066667	     -6.97321224	      2.66963478	     -3.53827372	     -0.02857807	      1.02991473	      0.29092622	     -1.32239287	     -3.03854239	     -0.82467773	    -30.05763414	     15.79402679	      3.54332316	     15.11074523	     30.24363424	      1.23506117	      0.81715443	    -15.88176767	      1.09212305	      0.47068559	      8.11660184	     -5.52610218	     -0.32862622	      3.39904275
      1.07483333	     -6.91978556	      2.73612588	     -3.58046650	     -0.02249381	      1.03005535	      0.29037782	     -1.03654937	     -3.24163138	     -0.94943520	    -31.38904783	     15.11405921	      3.73618219	     15.28031079	     30.20165243	      1.35232263	      0.75048912	    -16.63225606	      1.14386464	      0.52744089	      8.10581951	     -5.55150930	     -0.44777591	      3.38680612
      1.07900000	     -6.82984984	      2.80130953	     -3.62824291	     -0.01643712	      1.03032561	      0.28987655	     -0.76375218	     -3.43939370	     -1.03203982	    -32.74302699	     14.30930917	      3.74740547	     18.19198045	     30.10574929	      1.45992852	      0.62671239	    -17.35927060	      1.26199985	      0.66336822	      7.84132188	     -5.63814421	     -0.58808551	      3.39579911
      1.08316667	     -6.78034382	      2.86463603	     -3.65186002	     -0.01036908	      1.03060187	      0.28929457	     -0.41812899	     -3.64603827	     -1.16414159	    -34.14669136	     13.47134258	      3.91906889	     18.23105617	     29.99655949	      1.59387514	      0.66597234	    -17.96532735	      1.32222474	      0.58597856	      7.83819929	     -5.66727358	     -0.70122728	      3.34394123
      1.08733333	     -6.70858013	      2.94108920	     -3.68187116	     -0.00433812	      1.03096015	      0.28875105	     -0.05810858	     -3.86958739	     -1.28379483	    -35.60314269	     12.61369899	      4.02663208	     18.29367908	     29.84287608	      1.73410897	      0.65728140	    -18.52819043	      1.42396159	      0.54708781	      7.83274845	     -5.72390422	     -0.84205787	      3.29550712
      1.09150000	     -6.64929271	      3.00355043	     -3.69462125	      0.00166660	      1.03135125	      0.28819392	      0.34268305	     -4.08146824	     -1.42635704	    -37.08902495	     11.67144947	      4.13370683	     20.00638959	     29.69291197	      1.86283355	      0.63024644	    -19.07331093	      1.57404816	      0.61225886	      7.59980255	     -5.77066375	     -0.97738007	      3.34407854
      1.09566667	     -6.54910609	      3.09448125	     -3.73149762	      0.00763660	      1.03186326	      0.28770605	      0.73641973	     -4.32298501	     -1.52161987	    -38.61842719	     10.75013357	      4.14509604	     20.01855842	     29.45147705	      2.01644341	      0.60988770	    -19.51882535	      1.73680571	      0.51789060	      7.59999059	     -5.87722343	     -1.13786948	      3.24823239
      1.09983333	     -6.48284287	      3.20177051	     -3.76366315	      0.01361435	      1.03238356	      0.28721970	      1.19478122	     -4.58173533	     -1.60745036	    -40.17574607	      9.76461046	      4.15197200	     20.06370707	     29.20453784	      2.18971242	      0.62374842	    -19.87424585	      1.88502777	      0.47047758	      7.59346523	     -5.91706180	     -1.31227646	      3.15601954
      1.10400000	     -6.40768911	      3.30129944	     -3.78606256	      0.01954593	      1.03295682	      0.28673817	      1.66854319	     -4.83249855	     -1.70261600	    -41.75274448	      8.76736177	      4.12635710	     20.11607437	     28.93340612	      2.35971145	      0.63596476	    -20.19865285	      2.06762484	      0.40744345	      7.58405588	     -5.98482015	     -1.48308003	      3.07698761
